<?xml version="1.0" encoding="UTF-8"?>
<svg xmlns="http://www.w3.org/2000/svg" viewBox="0 0 1078 466" width="1078" height="466">
  <title>imzo akfa logo</title>
  <path d="M 35.0 369.0 L 66.0 360.0 L 144.0 263.0 L 157.0 274.0 L 181.0 270.0 L 306.0 203.0 L 234.0 296.0 L 413.0 208.0 L 379.0 281.0 L 531.0 208.0 L 551.0 207.0 L 511.0 266.0 L 735.0 185.0 L 781.0 188.0 L 686.0 226.0 L 637.0 260.0 L 750.0 266.0 L 851.0 244.0 L 841.0 260.0 L 850.0 271.0 L 915.0 273.0 L 1006.0 246.0 L 1042.0 211.0 L 1021.0 196.0 L 975.0 196.0 L 794.0 249.0 L 699.0 248.0 L 844.0 181.0 L 751.0 173.0 L 709.0 179.0 L 573.0 234.0 L 613.0 171.0 L 606.0 168.0 L 438.0 243.0 L 474.0 169.0 L 288.0 266.0 L 362.0 179.0 L 358.0 171.0 L 163.0 265.0 L 162.0 244.0 L 275.0 104.0 L 281.0 84.0 L 272.0 81.0 L 198.0 139.0 L 144.0 234.0 Z
M 1031.0 327.0 L 938.0 308.0 L 822.0 295.0 L 709.0 289.0 L 549.0 289.0 L 396.0 298.0 L 275.0 313.0 L 169.0 335.0 L 112.0 353.0 L 108.0 359.0 L 125.0 368.0 L 150.0 370.0 L 236.0 345.0 L 332.0 326.0 L 435.0 313.0 L 551.0 305.0 L 801.0 307.0 Z
M 1014.0 221.0 L 1013.0 226.0 L 1006.0 233.0 L 1000.0 237.0 L 977.0 247.0 L 960.0 251.0 L 956.0 253.0 L 937.0 257.0 L 930.0 257.0 L 929.0 258.0 L 899.0 258.0 L 893.0 256.0 L 890.0 253.0 L 892.0 248.0 L 906.0 237.0 L 926.0 226.0 L 948.0 218.0 L 977.0 212.0 L 998.0 212.0 L 1010.0 216.0 Z
M 605.0 378.0 L 605.0 392.0 L 640.0 392.0 L 643.0 395.0 L 642.0 398.0 L 610.0 398.0 L 604.0 401.0 L 602.0 405.0 L 602.0 422.0 L 603.0 425.0 L 607.0 429.0 L 610.0 430.0 L 660.0 430.0 L 665.0 426.0 L 666.0 424.0 L 666.0 390.0 L 661.0 382.0 L 658.0 380.0 L 650.0 378.0 Z
M 404.0 378.0 L 404.0 392.0 L 438.0 392.0 L 441.0 393.0 L 443.0 396.0 L 442.0 398.0 L 409.0 398.0 L 404.0 400.0 L 401.0 404.0 L 401.0 424.0 L 404.0 428.0 L 409.0 430.0 L 459.0 430.0 L 464.0 426.0 L 465.0 423.0 L 465.0 391.0 L 463.0 386.0 L 457.0 380.0 L 449.0 378.0 Z
M 475.0 360.0 L 474.0 361.0 L 474.0 430.0 L 494.0 430.0 L 494.0 415.0 L 497.0 412.0 L 499.0 412.0 L 511.0 430.0 L 533.0 430.0 L 530.0 424.0 L 513.0 401.0 L 513.0 399.0 L 533.0 378.0 L 511.0 378.0 L 495.0 393.0 L 494.0 392.0 L 494.0 360.0 Z
M 593.0 360.0 L 574.0 360.0 L 564.0 362.0 L 556.0 367.0 L 554.0 370.0 L 552.0 378.0 L 544.0 378.0 L 543.0 379.0 L 543.0 391.0 L 544.0 392.0 L 551.0 392.0 L 553.0 394.0 L 553.0 430.0 L 576.0 430.0 L 576.0 393.0 L 577.0 392.0 L 593.0 392.0 L 593.0 378.0 L 577.0 378.0 L 576.0 376.0 L 579.0 373.0 L 593.0 373.0 Z
M 252.0 101.0 L 253.0 104.0 L 178.0 193.0 L 169.0 201.0 L 168.0 199.0 L 177.0 181.0 L 185.0 168.0 L 203.0 144.0 L 230.0 115.0 L 243.0 105.0 Z
M 316.0 41.0 L 313.0 37.0 L 309.0 35.0 L 298.0 35.0 L 291.0 37.0 L 283.0 41.0 L 273.0 50.0 L 269.0 57.0 L 269.0 61.0 L 273.0 64.0 L 284.0 64.0 L 296.0 61.0 L 307.0 55.0 L 314.0 48.0 L 316.0 44.0 Z
M 423.0 412.0 L 425.0 410.0 L 442.0 410.0 L 443.0 415.0 L 441.0 417.0 L 425.0 417.0 L 423.0 415.0 Z
M 624.0 412.0 L 626.0 410.0 L 642.0 410.0 L 643.0 415.0 L 641.0 417.0 L 626.0 417.0 L 624.0 415.0 Z" fill="#FFFFFF" fill-rule="evenodd"/>
</svg>
